HIERARCHY
ROOT Hips
{
	OFFSET 0.000000 0.000000 0.000000
	CHANNELS 6 Xposition Yposition Zposition Xrotation Yrotation Zrotation
	JOINT Spine
	{
		OFFSET 0.000000 0.000000 0.102259
		CHANNELS 3 Xrotation Yrotation Zrotation
		JOINT Spine1
		{
			OFFSET 0.000000 -0.017757 0.100705
			CHANNELS 3 Xrotation Yrotation Zrotation
			JOINT Spine2
			{
				OFFSET 0.000000 -0.008912 0.101870
				CHANNELS 3 Xrotation Yrotation Zrotation
				JOINT Spine3
				{
					OFFSET 0.000000 0.000000 0.102259
					CHANNELS 3 Xrotation Yrotation Zrotation
					JOINT Neck
					{
						OFFSET 0.000000 0.013148 0.131476
						CHANNELS 3 Xrotation Yrotation Zrotation
						JOINT Neck1
						{
							OFFSET 0.000000 0.003817 0.043628
							CHANNELS 3 Xrotation Yrotation Zrotation
							JOINT Head
							{
								OFFSET 0.000000 0.007605 0.043130
								CHANNELS 3 Xrotation Yrotation Zrotation
								End Site
								{
									OFFSET 0.000000 0.000000 0.097916
								}
							}
						}
					}
					JOINT RightShoulder
					{
						OFFSET 0.000000 0.000000 0.092033
						CHANNELS 3 Xrotation Yrotation Zrotation
						JOINT RightArm
						{
							OFFSET 0.166682 0.000000 0.000000
							CHANNELS 3 Xrotation Yrotation Zrotation
							JOINT RightForeArm
							{
								OFFSET 0.339269 0.000000 0.000000
								CHANNELS 3 Xrotation Yrotation Zrotation
								JOINT RightHand
								{
									OFFSET 0.272813 0.000000 0.000000
									CHANNELS 3 Xrotation Yrotation Zrotation
									End Site
									{
										OFFSET 0.042337 0.031482 -0.014412
									}
									End Site
									{
										OFFSET 0.112899 -0.001086 0.000000
									}
								}
							}
						}
					}
					JOINT LeftShoulder
					{
						OFFSET 0.000000 0.000000 0.092033
						CHANNELS 3 Xrotation Yrotation Zrotation
						JOINT LeftArm
						{
							OFFSET -0.166682 0.000000 0.000000
							CHANNELS 3 Xrotation Yrotation Zrotation
							JOINT LeftForeArm
							{
								OFFSET -0.339269 0.000000 0.000000
								CHANNELS 3 Xrotation Yrotation Zrotation
								JOINT LeftHand
								{
									OFFSET -0.272813 0.000000 0.000000
									CHANNELS 3 Xrotation Yrotation Zrotation
									End Site
									{
										OFFSET -0.042337 0.031482 -0.014412
									}
									End Site
									{
										OFFSET -0.112899 -0.001086 0.000000
									}
								}
							}
						}
					}
				}
			}
		}
	}
	JOINT RightUpLeg
	{
		OFFSET 0.120852 0.000000 0.000000
		CHANNELS 3 Xrotation Yrotation Zrotation
		JOINT RightLeg
		{
			OFFSET 0.000000 0.000000 -0.533302
			CHANNELS 3 Xrotation Yrotation Zrotation
			JOINT RightFoot
			{
				OFFSET 0.000000 0.000000 -0.471812
				CHANNELS 3 Xrotation Yrotation Zrotation
				JOINT RightToeBase
				{
					OFFSET 0.000000 0.169608 -0.043308
					CHANNELS 3 Xrotation Yrotation Zrotation
					End Site
					{
						OFFSET 0.000000 0.063837 0.000000
					}
				}
			}
		}
	}
	JOINT LeftUpLeg
	{
		OFFSET -0.120852 0.000000 0.000000
		CHANNELS 3 Xrotation Yrotation Zrotation
		JOINT LeftLeg
		{
			OFFSET 0.000000 0.000000 -0.533302
			CHANNELS 3 Xrotation Yrotation Zrotation
			JOINT LeftFoot
			{
				OFFSET 0.000000 0.000000 -0.471812
				CHANNELS 3 Xrotation Yrotation Zrotation
				JOINT LeftToeBase
				{
					OFFSET 0.000000 0.169608 -0.043308
					CHANNELS 3 Xrotation Yrotation Zrotation
					End Site
					{
						OFFSET 0.000000 0.064424 0.000000
					}
				}
			}
		}
	}
}
MOTION
Frames: 8
Frame Time: 0.008333
-3.990156 1.027976 -1.302363 -58.432629 28.702566 -117.238587 -18.751887 16.392652 7.358893 -18.566901 16.969040 5.869691 -3.242962 -2.603428 1.396342 -3.242962 -2.603428 1.396342 19.239619 13.283370 -17.211243 8.508358 6.420758 -15.350435 -5.313102 0.722170 -13.276674 1.889419 -14.007569 7.760949 41.095112 34.317268 15.507951 -6.562747 -2.086296 17.559372 0.000007 11.066290 -5.229706 -1.275817 -5.572523 -12.917104 -48.922303 -54.013988 -51.011318 6.314731 -11.623736 -61.223007 0.000026 -13.421260 -23.365101 75.235312 -24.617537 -8.048215 -41.302000 0.000000 0.000000 5.993182 8.485477 -16.498377 7.146000 0.000000 0.000000 28.937977 -6.909328 14.258012 -2.432100 0.000000 0.000000 11.645357 -7.515126 13.601951 4.178400 0.000000 0.000000 
-3.989884 1.027920 -1.301977 -58.388557 28.697982 -117.406201 -18.837655 16.390004 7.400410 -18.653066 16.969931 5.911349 -3.234976 -2.589302 1.423554 -3.234976 -2.589302 1.423554 19.242842 13.178974 -17.188095 8.526319 6.405912 -15.352997 -5.285034 0.836922 -13.276242 1.854435 -14.110724 7.564975 41.105837 34.484663 15.856361 -6.489623 -2.032970 17.320532 0.000026 11.097726 -5.300799 -1.290603 -5.625082 -12.944399 -48.856045 -54.022512 -50.956288 6.300592 -11.652989 -61.337424 -0.000018 -13.382027 -23.389989 75.241981 -24.577337 -8.287190 -41.277100 0.000000 0.000000 5.954508 8.464299 -16.186368 7.213500 0.000000 0.000000 28.959294 -6.852798 14.286105 -2.497900 0.000000 0.000000 11.734444 -7.492023 13.708686 4.197900 0.000000 0.000000 
-3.989429 1.027773 -1.301802 -58.303914 28.735592 -117.493644 -18.817591 16.435793 7.380357 -18.631505 17.013744 5.886998 -3.283627 -2.629027 1.390063 -3.283627 -2.629027 1.390063 19.228244 13.183654 -17.147867 8.534798 6.442900 -15.323935 -5.250521 0.911144 -13.234704 1.895091 -14.212177 7.675455 41.305388 34.581931 15.794065 -6.498449 -2.021436 17.205930 -0.000017 11.185033 -5.303414 -1.283694 -5.618156 -12.892519 -48.791657 -54.080298 -50.884606 6.268862 -11.659109 -61.472432 -0.000010 -13.306369 -23.397821 75.335209 -24.635734 -8.437018 -41.338000 0.000000 0.000000 5.987023 8.478966 -15.949292 7.239900 0.000000 0.000000 29.025386 -6.870995 14.168158 -2.559000 0.000000 0.000000 11.827591 -7.440918 13.867585 4.196500 0.000000 0.000000 
-3.989196 1.027699 -1.301291 -58.292517 28.696633 -117.630254 -18.912521 16.446386 7.395369 -18.726404 17.025587 5.900974 -3.285844 -2.658824 1.384891 -3.285844 -2.658824 1.384891 19.182455 13.210306 -17.107885 8.539190 6.476013 -15.292440 -5.181115 0.946053 -13.194331 1.919822 -14.310756 7.722550 41.457548 34.730016 15.858671 -6.395293 -1.969554 17.047055 -0.000025 11.202703 -5.385000 -1.278506 -5.607325 -12.866438 -48.676897 -54.145735 -50.778607 6.269866 -11.711021 -61.573757 -0.000025 -13.317628 -23.446996 75.312379 -24.548339 -8.528899 -41.351500 0.000000 0.000000 5.987638 8.439871 -15.804356 7.247500 0.000000 0.000000 29.003659 -6.805990 14.118533 -2.629900 0.000000 0.000000 11.923971 -7.411984 14.028791 4.199400 0.000000 0.000000 
-3.988792 1.027610 -1.301020 -58.238706 28.708399 -117.729715 -18.924615 16.473327 7.391707 -18.737710 17.052249 5.894807 -3.320276 -2.693533 1.368512 -3.320276 -2.693533 1.368512 19.147884 13.303626 -17.084780 8.552999 6.522988 -15.262586 -5.098531 0.919041 -13.153923 1.987112 -14.428909 7.927047 41.587535 34.736348 15.694389 -6.235340 -1.913388 16.992773 0.000002 11.243349 -5.461120 -1.268497 -5.569908 -12.850882 -48.619055 -54.257741 -50.730464 6.295208 -11.812638 -61.680403 -0.000026 -13.361163 -23.431951 75.372304 -24.553844 -8.651552 -41.417800 0.000000 0.000000 6.008184 8.451443 -15.634549 7.256700 0.000000 0.000000 29.050323 -6.791981 14.010712 -2.718400 0.000000 0.000000 12.018234 -7.353656 14.200923 4.217100 0.000000 0.000000 
-3.988446 1.027524 -1.300672 -58.196934 28.714894 -117.834928 -18.949266 16.492977 7.394861 -18.761732 17.072025 5.896062 -3.345711 -2.722735 1.359435 -3.345711 -2.722735 1.359435 19.123653 13.423461 -17.071784 8.564785 6.564002 -15.232247 -5.031220 0.838928 -13.117031 2.049210 -14.505994 8.129586 41.729354 34.710366 15.549644 -6.133654 -1.876745 16.948640 0.000001 11.325634 -5.566530 -1.260234 -5.530567 -12.858180 -48.558437 -54.375350 -50.685426 6.247307 -11.759400 -61.758009 0.000024 -13.318460 -23.512662 75.398030 -24.535355 -8.773743 -41.437200 0.000000 0.000000 6.034960 8.410234 -15.457612 7.240600 0.000000 0.000000 29.093528 -6.759820 13.931179 -2.817100 0.000000 0.000000 12.110812 -7.309678 14.349488 4.222900 0.000000 0.000000 
-3.988284 1.027473 -1.300011 -58.235305 28.623581 -117.968194 -19.103852 16.486879 7.438040 -18.916974 17.069657 5.939838 -3.316561 -2.728611 1.378563 -3.316561 -2.728611 1.378563 19.072792 13.471572 -17.056967 8.578126 6.571867 -15.215272 -4.928223 0.788047 -13.099961 2.031439 -14.552883 8.034903 41.629576 34.792193 15.937923 -6.017191 -1.809772 16.678774 0.000012 11.314720 -5.521845 -1.261073 -5.522997 -12.883206 -48.467110 -54.431449 -50.619621 6.221855 -11.753584 -61.844557 -0.000043 -13.278176 -23.540221 75.302024 -24.381788 -8.793443 -41.437100 0.000000 0.000000 6.032428 8.348864 -15.403322 7.239400 0.000000 0.000000 29.026824 -6.657206 13.952761 -2.931800 0.000000 0.000000 12.208436 -7.304013 14.461472 4.222100 0.000000 0.000000 
-3.988063 1.027384 -1.299394 -58.266031 28.538973 -118.072509 -19.234246 16.491967 7.473616 -19.047576 17.077890 5.974849 -3.296884 -2.733696 1.390182 -3.296884 -2.733696 1.390182 19.017885 13.462423 -17.033719 8.582371 6.574351 -15.203667 -4.846238 0.807276 -13.087222 2.018957 -14.623281 7.949057 41.505488 34.852859 16.304457 -5.928270 -1.751817 16.404484 0.000002 11.317991 -5.474273 -1.261785 -5.512950 -12.912665 -48.398721 -54.484155 -50.577226 6.228064 -11.797165 -61.907520 -0.000060 -13.266876 -23.609583 75.230441 -24.251756 -8.758203 -41.468400 0.000000 0.000000 6.063751 8.337119 -15.407298 7.228900 0.000000 0.000000 28.966984 -6.579178 13.926444 -3.045100 0.000000 0.000000 12.309689 -7.286480 14.594846 4.223500 0.000000 0.000000 
